<?xml version="1.0" encoding="utf-8"?>
<!-- Generator: Adobe Illustrator 27.3.1, SVG Export Plug-In . SVG Version: 6.00 Build 0)  -->
<svg version="1.1" id="레이어_1" xmlns="http://www.w3.org/2000/svg" xmlns:xlink="http://www.w3.org/1999/xlink" x="0px"
	 y="0px" viewBox="0 0 640 640" style="enable-background:new 0 0 640 640;" xml:space="preserve">
<style type="text/css">
	.st0{fill:#FFFFFF;}
</style>
<path class="st0" d="M524.5,133.8c-0.2-0.3-0.4-0.6-0.8-0.7c-38.1-17.5-78.4-30-119.7-37.1c-0.4-0.1-0.8,0-1.1,0.1
	c-0.3,0.1-0.6,0.4-0.8,0.8c-5.5,9.9-10.5,20.2-14.9,30.6c-44.6-6.8-89.9-6.8-134.4,0c-4.5-10.5-9.5-20.7-15.1-30.6
	c-0.2-0.3-0.5-0.6-0.8-0.8c-0.3-0.2-0.7-0.2-1.1-0.2c-41.3,7.1-81.6,19.6-119.7,37.1c-0.3,0.1-0.6,0.4-0.8,0.7
	C39.1,247.5,18.2,358.6,28.4,468.2c0,0.3,0.1,0.5,0.2,0.8s0.3,0.4,0.5,0.6c44.4,32.9,94,58,146.8,74.2c0.4,0.1,0.8,0.1,1.1,0
	c0.3-0.1,0.7-0.4,0.9-0.7c11.3-15.4,21.4-31.8,30-48.8c0.1-0.2,0.2-0.5,0.2-0.8s0-0.5-0.1-0.8c-0.1-0.3-0.2-0.5-0.4-0.6
	c-0.2-0.1-0.4-0.3-0.7-0.4c-15.8-6.1-31.2-13.4-45.9-21.9c-0.3-0.2-0.5-0.4-0.7-0.6c-0.2-0.2-0.3-0.6-0.3-0.9c0-0.3,0-0.6,0.2-0.9
	c0.2-0.3,0.3-0.5,0.6-0.7c3.1-2.3,6.2-4.7,9.1-7.1c0.3-0.2,0.6-0.4,0.9-0.4s0.7,0,1,0.1c96.2,43.9,200.4,43.9,295.5,0
	c0.3-0.1,0.7-0.2,1-0.2c0.3,0,0.7,0.2,0.9,0.4c2.9,2.4,6,4.9,9.1,7.2c0.2,0.2,0.4,0.4,0.6,0.7c0.2,0.3,0.2,0.6,0.2,0.9
	c0,0.3-0.1,0.6-0.3,0.9c-0.2,0.3-0.4,0.5-0.6,0.6c-14.7,8.6-30,15.9-45.9,21.8c-0.2,0.1-0.5,0.2-0.7,0.4c-0.2,0.2-0.3,0.4-0.4,0.7
	c-0.1,0.3-0.1,0.5-0.1,0.8s0.1,0.5,0.2,0.8c8.8,17,18.8,33.3,30,48.8c0.2,0.3,0.6,0.6,0.9,0.7c0.3,0.1,0.8,0.1,1.1,0
	c52.9-16.2,102.6-41.3,147.1-74.2c0.2-0.2,0.4-0.4,0.5-0.6c0.1-0.2,0.2-0.5,0.2-0.8c12.3-126.8-20.5-236.9-86.9-334.5L524.5,133.8z
	 M222.5,401.5c-29,0-52.8-26.6-52.8-59.2s23.4-59.2,52.8-59.2c29.7,0,53.3,26.8,52.8,59.2C275.3,375,251.9,401.5,222.5,401.5z
	 M417.9,401.5c-29,0-52.8-26.6-52.8-59.2s23.4-59.2,52.8-59.2c29.7,0,53.3,26.8,52.8,59.2C470.7,375,447.5,401.5,417.9,401.5z"/>
</svg>
