<?xml version="1.0" encoding="utf-8"?>
<!-- Generator: Adobe Illustrator 27.3.1, SVG Export Plug-In . SVG Version: 6.00 Build 0)  -->
<svg version="1.1" id="레이어_1" xmlns="http://www.w3.org/2000/svg" xmlns:xlink="http://www.w3.org/1999/xlink" x="0px"
	 y="0px" viewBox="0 0 640 640" style="enable-background:new 0 0 640 640;" xml:space="preserve">
<style type="text/css">
	.st0{fill:#FFFFFF;}
</style>
<path class="st0" d="M566.6,151.2c-6.8,71.8-36.5,246.2-51.5,326.6c-6.4,34.1-18.9,45.4-31,46.5c-26.4,2.4-46.3-17.4-72-34.3
	c-39.9-26.2-62.6-42.5-101.3-68.1c-44.9-29.5-15.8-45.8,9.7-72.4c6.8-7,122.9-112.7,125.1-122.2c0.4-1.3,0.5-5.7-2.2-8.1
	c-2.7-2.4-6.6-1.5-9.3-0.9c-4,0.9-68,43-191.6,126.6c-18.1,12.5-34.6,18.5-49.3,18.1c-16.3-0.4-47.4-9.2-70.7-16.7
	c-28.4-9.2-51.1-14.1-49.1-29.9c1.1-8.2,12.3-16.5,33.7-25.1c132.4-57.7,220.7-95.8,264.9-114.1c126.2-52.4,152.4-61.5,169.4-61.9
	c3.8,0,12.1,0.9,17.6,5.3c3.7,3.1,5.9,7.5,6.4,12.3c0.9,5.9,1.1,11.9,0.7,18L566.6,151.2z"/>
</svg>
