<?xml version="1.0" encoding="utf-8"?>
<!-- Generator: Adobe Illustrator 27.3.1, SVG Export Plug-In . SVG Version: 6.00 Build 0)  -->
<svg version="1.1" id="레이어_1" xmlns="http://www.w3.org/2000/svg" xmlns:xlink="http://www.w3.org/1999/xlink" x="0px"
	 y="0px" viewBox="0 0 157.1 43.1" style="enable-background:new 0 0 157.1 43.1;" xml:space="preserve">
<style type="text/css">
	.st0{fill:#FFFFFF;}
	.st1{fill:#DF3C8F;}
	.st2{opacity:0.6;fill:#6C499A;}
	.st3{opacity:0.8;fill:#2C6EB7;}
</style>
<g>
	<path class="st0" d="M110,6.9c0.7,0,1.3,0.3,1.8,0.8c0.5,0.5,0.8,1.1,0.8,1.9v15.8c0,0.5,0.2,1,0.5,1.4c0.3,0.4,0.8,0.6,1.3,0.6
		c0.7,0,1.3,0.2,1.8,0.7c0.5,0.5,0.8,1.1,0.8,1.8c0,0.6-0.2,1.2-0.7,1.7c-0.4,0.5-1,0.8-1.7,0.9h-0.6c-0.9,0-1.8-0.2-2.6-0.6
		c-0.8-0.4-1.6-0.9-2.2-1.5c-0.6-0.6-1.1-1.4-1.5-2.2c-0.4-0.8-0.5-1.7-0.5-2.7V9.4c0.1-0.7,0.4-1.2,0.8-1.7
		C108.7,7.2,109.3,7,110,6.9z"/>
	<path class="st0" d="M121.2,13c0.7,0,1.3,0.3,1.8,0.8c0.5,0.5,0.8,1.2,0.8,1.9v7c0,0.6,0.1,1.2,0.4,1.7c0.2,0.5,0.6,1,1,1.4
		s0.9,0.7,1.4,1c0.5,0.2,1.1,0.4,1.7,0.4c0.6,0,1.1-0.1,1.7-0.3c0.5-0.2,1-0.5,1.4-0.9c0.4-0.4,0.7-0.8,1-1.4
		c0.2-0.5,0.4-1.1,0.4-1.7v-7.3c0-0.7,0.3-1.3,0.8-1.8c0.5-0.5,1.1-0.8,1.8-0.8c0.7,0,1.3,0.3,1.9,0.8c0.5,0.5,0.8,1.1,0.8,1.7v7.2
		c0,1.3-0.3,2.6-0.8,3.8c-0.5,1.2-1.2,2.2-2.1,3.1c-0.9,0.9-1.9,1.6-3.1,2.1c-1.2,0.5-2.4,0.8-3.8,0.8c-1.3,0.1-2.5-0.2-3.7-0.7
		c-1.2-0.5-2.2-1.2-3.1-2c-0.9-0.9-1.6-1.9-2.1-3c-0.5-1.2-0.8-2.4-0.8-3.7v-7.3c0-0.7,0.2-1.3,0.7-1.8
		C119.9,13.3,120.5,13,121.2,13z"/>
	<path class="st0" d="M155.5,13.1c0.7,0.3,1.2,0.8,1.5,1.4c0.3,0.7,0.3,1.3,0,2l-5.8,14.1c-0.1,0.3-0.4,0.6-0.9,1.1
		c-0.4,0.4-1,0.6-1.6,0.6c-0.5,0-1-0.1-1.5-0.4c-0.5-0.3-0.8-0.7-1-1.3l-5.9-14.1c-0.3-0.7-0.3-1.4,0-2c0.3-0.7,0.8-1.1,1.5-1.4
		c0.7-0.3,1.4-0.3,2,0c0.7,0.3,1.1,0.8,1.4,1.5l3.4,7.7l3.4-7.7c0.3-0.7,0.8-1.2,1.5-1.5C154.1,12.9,154.8,12.9,155.5,13.1z"/>
</g>
<g>
	<g>
		<path class="st0" d="M69.4,17.1c4.4,2.8,9.6-0.9,9.6-5.7c0-2.7-1.7-6.7-7.5-6.7c-6.7,0-10.3,5.1-10.3,8.8c0,1.8,0.9,3.5,0.9,3.5
			l-4,3c0,0-1.9-2.8-1.9-6.4C56.2,8.2,60.6,0,71.5,0c9.4,0,13.3,6,13.3,11.3c0,4.9-3.4,10.1-9.1,11c2.3,1.8,2,4.8,1.7,7.2l-1,5.7
			c-0.3,2.7,0,3.6,2.5,3.5v4.3c-6.1,1-9.1-2.9-8.3-7.7l0.9-5c0.9-4.5,0.8-7.1-1.3-8.5c-1.1-0.3-2-0.8-2.1-0.8l-4.8,11.9h-6l8.5-21
			c1.1-2.6,3.7-5.5,7.5-5.5l1.1,3.3c0,0-2,0.8-3.1,3.5L69.4,17.1z"/>
		<path class="st0" d="M104.9,23.3c-2.6,4.5-7.2,9.5-14.5,9.5c-5.3,0-7.8-2.6-7.8-6.7c0-5,3.8-13.9,11.9-13.9c4.3,0,7.9,2.8,5.5,8.3
			c-1.6,3.5-4.6,5.6-11.6,4.7c0,0-1.1,3.9,3.7,3.9c3.9,0,8-2.5,10.7-7.3C103.5,21.9,104.6,22.6,104.9,23.3z M89.4,21.9
			c3.5,0.6,4.6-1,5.4-2.8c0.5-1.1,0.7-2.2-0.6-2.2C91.4,17,89.4,21.9,89.4,21.9z"/>
	</g>
</g>
<path class="st1" d="M47.5,15.6c0,7.8-6.3,14.1-14.1,14.1H19.3V15.6c0-7.8,6.3-14.1,14.1-14.1S47.5,7.8,47.5,15.6z"/>
<path class="st2" d="M40.5,29.7c0,3.9-3.2,7.1-7.1,7.1h-7.1v-7.1c0-3.9,3.2-7.1,7.1-7.1S40.5,25.8,40.5,29.7z"/>
<path class="st3" d="M0,23.5c0,7.3,5.9,13.2,13.2,13.2h13.2V23.5c0-7.3-5.9-13.2-13.2-13.2S0,16.3,0,23.5z"/>
</svg>
